<svg width="512" height="512" viewBox="0 0 512 512" fill="none" xmlns="http://www.w3.org/2000/svg">
<g clip-path="url(#clip0)">
<path d="M462 0H50C22.3858 0 0 22.3858 0 50V462C0 489.614 22.3858 512 50 512H462C489.614 512 512 489.614 512 462V50C512 22.3858 489.614 0 462 0Z" fill="#3178C6"/>
<path d="M269.08 227.24V269.8H202.2V449H152.28V269.8H85.4V227.24H269.08ZM394.783 453.48C358.729 453.48 331.209 443.453 312.223 423.4C293.449 403.347 284.063 374.867 284.063 337.96C284.063 319.613 286.943 303.293 292.703 289C298.463 274.493 306.356 262.333 316.383 252.52C326.409 242.493 338.356 234.92 352.223 229.8C366.089 224.68 381.129 222.12 397.343 222.12C406.729 222.12 415.263 222.867 422.943 224.36C430.623 225.64 437.343 227.24 443.103 229.16C448.863 230.867 453.663 232.68 457.503 234.6C461.343 236.52 464.116 238.013 465.823 239.08L451.423 279.4C444.596 275.773 436.596 272.68 427.423 270.12C418.463 267.56 408.223 266.28 396.703 266.28C389.023 266.28 381.449 267.56 373.983 270.12C366.729 272.68 360.223 276.84 354.463 282.6C348.916 288.147 344.436 295.4 341.023 304.36C337.609 313.32 335.903 324.2 335.903 337C335.903 347.24 336.969 356.84 339.103 365.8C341.449 374.547 345.076 382.12 349.983 388.52C355.103 394.92 361.716 400.04 369.823 403.88C377.929 407.507 387.743 409.32 399.263 409.32C406.516 409.32 413.023 408.893 418.783 408.04C424.543 407.187 429.663 406.227 434.143 405.16C438.623 403.88 442.569 402.493 445.983 401C449.396 399.507 452.489 398.12 455.263 396.84L469.023 436.84C461.983 441.107 452.063 444.947 439.263 448.36C426.463 451.773 411.636 453.48 394.783 453.48Z" fill="white"/>
</g>
<defs>
<clipPath id="clip0">
<rect width="512" height="512" fill="white"/>
</clipPath>
</defs>
</svg>
